<svg width="130" height="130" viewBox="0 0 130 130" fill="none" xmlns="http://www.w3.org/2000/svg">
<g clip-path="url(#clip0_1806_11252)">
<path d="M130.055 -0.0273895H0V130.027H130.055V-0.0273895Z" fill="#FF6666"/>
<path d="M124.076 7.56735H61.7444V122.917H124.076V7.56735Z" fill="#FF4353"/>
<path d="M63.3457 64.0613C63.3457 64.0613 68.5608 71.1511 79.4233 67.2634C90.3241 63.362 95.1697 47.4199 88.1114 47.4295C84.4563 47.435 85.8754 52.3175 90.2776 50.3606" stroke="#FFC161" stroke-width="3.48684" stroke-miterlimit="10"/>
<path d="M28.217 86.2748V120.953H38.3351" stroke="#FFC161" stroke-width="3.48684" stroke-miterlimit="10"/>
<path d="M55.0352 86.2748V120.953H65.1519" stroke="#FFC161" stroke-width="3.48684" stroke-miterlimit="10"/>
<path d="M43.0887 96.2451C62.059 96.2451 77.4375 80.8667 77.4375 61.8964C77.4375 42.9261 62.059 27.5477 43.0887 27.5477C24.1184 27.5477 8.73999 42.9261 8.73999 61.8964C8.73999 80.8667 24.1184 96.2451 43.0887 96.2451Z" fill="#FFD66D"/>
<path d="M50.9339 55.5511C52.1923 55.5511 53.2124 54.531 53.2124 53.2727C53.2124 52.0143 52.1923 50.9942 50.9339 50.9942C49.6756 50.9942 48.6555 52.0143 48.6555 53.2727C48.6555 54.531 49.6756 55.5511 50.9339 55.5511Z" fill="white"/>
<path d="M59.4908 58.7805C60.7492 58.7805 61.7692 57.7605 61.7692 56.5021C61.7692 55.2438 60.7492 54.2237 59.4908 54.2237C58.2325 54.2237 57.2124 55.2438 57.2124 56.5021C57.2124 57.7605 58.2325 58.7805 59.4908 58.7805Z" fill="white"/>
<path d="M64.0475 52.286C65.3058 52.286 66.3259 51.2659 66.3259 50.0076C66.3259 48.7492 65.3058 47.7292 64.0475 47.7292C62.7891 47.7292 61.769 48.7492 61.769 50.0076C61.769 51.2659 62.7891 52.286 64.0475 52.286Z" fill="white"/>
<path d="M48.4297 62.4712C48.4297 62.4712 55.0255 66.753 62.0592 64.907C69.2488 63.0199 70.8827 56.0437 70.8827 56.0437" stroke="white" stroke-width="2.78947" stroke-miterlimit="10"/>
<path d="M24.4508 63.8464C24.4508 63.8464 13.3981 77.5443 11.6643 102.173" stroke="#FFC161" stroke-width="3.48684" stroke-miterlimit="10"/>
<path d="M113.733 70.304C116.049 70.304 117.926 68.4268 117.926 66.1111C117.926 63.7955 116.049 61.9183 113.733 61.9183C111.418 61.9183 109.541 63.7955 109.541 66.1111C109.541 68.4268 111.418 70.304 113.733 70.304Z" fill="#FF6666"/>
<path d="M85.5441 42.2623L83.1931 35.5789" stroke="#FFD66D" stroke-width="2.09211" stroke-miterlimit="10"/>
<path d="M92.2632 42.2623L94.4486 37.5933" stroke="#FFD66D" stroke-width="2.09211" stroke-miterlimit="10"/>
<path d="M95.0764 44.7282L102.099 43.253" stroke="#FFD66D" stroke-width="2.09211" stroke-miterlimit="10"/>
</g>
<defs>
<clipPath id="clip0_1806_11252">
<rect width="130" height="130" fill="white"/>
</clipPath>
</defs>
</svg>
