<svg width="280" height="280" viewBox="0 0 280 280" fill="none" xmlns="http://www.w3.org/2000/svg">
<g clip-path="url(#clip0_1806_11908)">
<rect width="280" height="280" fill="white"/>
<path d="M82.0815 280H97.8678V249.799H82.0815V280Z" fill="#FFD999"/>
<path d="M128.637 93.0404C128.637 93.0404 135.199 129.002 154.983 155.535" stroke="#AB9CFF" stroke-width="5.18518" stroke-miterlimit="10"/>
<path d="M203.171 217.412C203.171 217.412 201.185 236.675 211.115 245.412C222.152 255.124 235.739 242.195 235.739 242.195L241.101 253.517" stroke="#AB9CFF" stroke-width="5.18518" stroke-miterlimit="10"/>
<path d="M180.701 218.82V266.337L174.966 280" stroke="#AB9CFF" stroke-width="5.18518" stroke-miterlimit="10"/>
<path d="M197.9 101.904L261.473 148.094L237.191 222.826H158.61L134.327 148.094L197.9 101.904Z" fill="#D99CFF"/>
<path d="M184.93 152.338C186.973 152.338 188.629 150.682 188.629 148.639C188.629 146.595 186.973 144.939 184.93 144.939C182.886 144.939 181.23 146.595 181.23 148.639C181.23 150.682 182.886 152.338 184.93 152.338Z" fill="white"/>
<path d="M172.073 159.776C174.116 159.776 175.773 158.12 175.773 156.077C175.773 154.033 174.116 152.377 172.073 152.377C170.03 152.377 168.373 154.033 168.373 156.077C168.373 158.12 170.03 159.776 172.073 159.776Z" fill="white"/>
<path d="M163.053 150.575C165.097 150.575 166.753 148.919 166.753 146.876C166.753 144.832 165.097 143.176 163.053 143.176C161.01 143.176 159.354 144.832 159.354 146.876C159.354 148.919 161.01 150.575 163.053 150.575Z" fill="white"/>
<path d="M191.372 162.714C191.372 162.714 181.938 171.319 170.18 170.222C158.164 169.099 153.699 158.356 153.699 158.356" stroke="white" stroke-width="3.88889" stroke-miterlimit="10"/>
<path d="M225.283 179.646C225.283 179.646 256.081 195.373 261.473 227.912" stroke="#AB9CFF" stroke-width="5.18518" stroke-miterlimit="10"/>
<path d="M88.3581 260.431H123.208L123.208 181.118H88.3581V260.431Z" fill="#FF6666"/>
<path d="M0.248932 260.431H88.8767V206.23H0.248932V260.431Z" fill="#FF6F66"/>
<path d="M0.248932 206.29H88.8767L88.8767 134.662H0.248932L0.248932 206.29Z" fill="#FF5D63"/>
<path d="M13.5396 211.322L66.6447 220.19L75.5717 166.729L22.4666 157.861L13.5396 211.322Z" fill="#FF8D7B"/>
<path d="M265.8 5.68035H226.59C222.094 5.68035 218.449 9.32508 218.449 13.8211V53.0315C218.449 57.5275 222.094 61.1722 226.59 61.1722H265.8C270.296 61.1722 273.941 57.5275 273.941 53.0315V13.8211C273.941 9.32508 270.296 5.68035 265.8 5.68035Z" fill="#5E9EFF"/>
<path d="M231.487 29.8382L243.864 42.2152L261.442 24.6374" stroke="white" stroke-width="7.77778" stroke-miterlimit="10"/>
<path d="M183.864 84.2541L166.071 75.1904" stroke="#B3E1FF" stroke-width="7.77778" stroke-miterlimit="10"/>
<path d="M73.7955 56.0285L93.6574 53.983" stroke="#B3E1FF" stroke-width="7.77778" stroke-miterlimit="10"/>
<path d="M82.2915 28.4018L97.7797 41.0018" stroke="#B3E1FF" stroke-width="7.77778" stroke-miterlimit="10"/>
<path d="M108.757 159.38L103.613 152.424L108.757 145.468L113.898 152.424L108.757 159.38Z" fill="#FFE799"/>
<path d="M20.0822 186.602L14.9411 179.646L20.0822 172.69L25.2233 179.646L20.0822 186.602Z" fill="#FFE799"/>
<path d="M81.6563 244.274L76.5152 237.318L81.6563 230.362L86.7974 237.318L81.6563 244.274Z" fill="#FFE799"/>
<path d="M42.0337 115.819L36.89 108.86L42.0337 101.904L47.1748 108.86L42.0337 115.819Z" fill="#FFE799"/>
<path d="M125.261 106.32L132.012 59.837" stroke="#FFD999" stroke-width="7.77778" stroke-miterlimit="10"/>
<path d="M130.827 64.1381L130.56 64.0396ZM127.898 60.1999L107.302 55.5125L110.616 46.4748L129.225 56.1633L129.324 55.8962L122.777 35.1011L132.59 33.4236L134.055 54.9188L134.322 55.0174L149.253 39.3866L155.568 46.8299L136.85 58.8103L136.751 59.0774L157.793 63.7803L154.48 72.8181L135.289 63.0674" fill="#FFD999"/>
<path d="M133.239 64.0137L132.959 64.05ZM128.821 61.88L108.399 67.27L107.147 57.7267L128.129 57.6878L128.092 57.4078L112.653 42.0156L120.571 35.98L131.831 54.346L132.111 54.3097L138.094 33.5378L147.14 37.2063L136.109 56.4978L136.145 56.7778L156.969 51.1908L158.221 60.7341L136.697 60.9882" fill="#FFD999"/>
</g>
<defs>
<clipPath id="clip0_1806_11908">
<rect width="280" height="280" fill="white"/>
</clipPath>
</defs>
</svg>
