<svg width="42" height="40" viewBox="0 0 42 40" fill="none" xmlns="http://www.w3.org/2000/svg">
<path d="M18.3098 2.45096C19.4102 0.221224 22.5898 0.221219 23.6902 2.45096L27.6493 10.473C28.0863 11.3584 28.931 11.9721 29.9081 12.1141L38.7609 13.4005C41.2216 13.758 42.2041 16.7819 40.4236 18.5176L34.0176 24.7618C33.3106 25.451 32.9879 26.444 33.1548 27.4172L34.6671 36.2342C35.0874 38.685 32.5151 40.5538 30.3142 39.3968L22.396 35.2339C21.5221 34.7745 20.4779 34.7745 19.604 35.2339L11.6858 39.3968C9.48491 40.5538 6.91261 38.685 7.33294 36.2342L8.84518 27.4172C9.01209 26.444 8.68945 25.451 7.98239 24.7618L1.57644 18.5176C-0.204112 16.7819 0.778414 13.758 3.23908 13.4005L12.0919 12.1141C13.069 11.9721 13.9137 11.3584 14.3507 10.473L18.3098 2.45096Z" fill="#E1E1E1"/>
</svg>
