<svg width="148" height="148" viewBox="0 0 148 148" fill="none" xmlns="http://www.w3.org/2000/svg">
<g clip-path="url(#clip0_1806_11290)">
<rect width="148" height="148" fill="white"/>
<path d="M129.818 8.61517H44.6182V139.936H129.818V8.61517Z" fill="#B1D9FF"/>
<path d="M110.587 99.1584V137.973H99.2629" stroke="#5E7BFF" stroke-width="3.89474" stroke-miterlimit="10"/>
<path d="M87.747 99.1584V137.973H76.4211" stroke="#5E7BFF" stroke-width="3.89474" stroke-miterlimit="10"/>
<path d="M52.9138 85.9459C52.9138 85.9459 59.5333 72.6711 75.1497 62.6055" stroke="#5E7BFF" stroke-width="3.89474" stroke-miterlimit="10"/>
<path d="M123.063 22.7997H73.6914V113.538H123.063V22.7997Z" fill="#5E9EFF"/>
<path d="M84.4907 42.5757C85.8992 42.5757 87.041 41.4339 87.041 40.0254C87.041 38.617 85.8992 37.4752 84.4907 37.4752C83.0822 37.4752 81.9404 38.617 81.9404 40.0254C81.9404 41.4339 83.0822 42.5757 84.4907 42.5757Z" fill="white"/>
<path d="M89.4917 48.5269C90.9002 48.5269 92.042 47.3851 92.042 45.9766C92.042 44.5681 90.9002 43.4263 89.4917 43.4263C88.0832 43.4263 86.9414 44.5681 86.9414 45.9766C86.9414 47.3851 88.0832 48.5269 89.4917 48.5269Z" fill="white"/>
<path d="M99.509 44.3875C100.917 44.3875 102.059 43.2457 102.059 41.8373C102.059 40.4288 100.917 39.287 99.509 39.287C98.1005 39.287 96.9587 40.4288 96.9587 41.8373C96.9587 43.2457 98.1005 44.3875 99.509 44.3875Z" fill="white"/>
<path d="M79.0696 47.4067C79.0696 47.4067 83.212 54.2194 91.352 54.2381C100.712 54.2584 105.2 48.1732 105.2 48.1732" stroke="white" stroke-width="3.11579" stroke-miterlimit="10"/>
<path d="M66.4177 8.61517H16.1787V139.936H66.4177V8.61517Z" fill="#8BC7FF"/>
<path d="M55.9845 80.6646C58.2706 80.6646 60.1239 78.8114 60.1239 76.5253C60.1239 74.2392 58.2706 72.386 55.9845 72.386C53.6985 72.386 51.8452 74.2392 51.8452 76.5253C51.8452 78.8114 53.6985 80.6646 55.9845 80.6646Z" fill="#5E7BFF"/>
<path d="M139.449 27.6027C139.449 27.6027 133.694 46.3878 115.711 64.3519" stroke="#5E7BFF" stroke-width="3.89474" stroke-miterlimit="10"/>
</g>
<defs>
<clipPath id="clip0_1806_11290">
<rect width="148" height="148" fill="white"/>
</clipPath>
</defs>
</svg>
