<svg width="280" height="280" viewBox="0 0 280 280" fill="none" xmlns="http://www.w3.org/2000/svg">
<g clip-path="url(#clip0_1806_11175)">
<rect width="280" height="280" fill="white"/>
<path d="M211.526 239.565L194.442 278.794H203.331" stroke="#52D150" stroke-width="3.63809" stroke-miterlimit="10"/>
<path d="M194.442 241.639L203.331 278.794H213.818" stroke="#FF4353" stroke-width="3.63809" stroke-miterlimit="10"/>
<path d="M168.922 242.786C173.595 255.801 170.033 267.149 162.286 278.794H172.773" stroke="#FF4353" stroke-width="3.63809" stroke-miterlimit="10"/>
<path d="M222.416 231.317C240.995 241.329 251.892 243.543 258.829 278.794H269.316" stroke="#52D150" stroke-width="3.63809" stroke-miterlimit="10"/>
<path d="M149.213 241.639C156.977 254.285 159.64 266.674 156.882 278.794H169.902" stroke="#5E7BFF" stroke-width="3.63809" stroke-miterlimit="10"/>
<path d="M126.805 241.639C128.956 254.023 123.181 266.41 109.483 278.794H121.362" stroke="#5E7BFF" stroke-width="3.63809" stroke-miterlimit="10"/>
<path d="M98.1827 241.639C98.1827 241.639 105.648 266.875 68.6051 270.404L75.3331 279.57" stroke="#FFC161" stroke-width="3.63809" stroke-miterlimit="10"/>
<path d="M78.7602 241.639L103.916 278.794H116.747" stroke="#FFC161" stroke-width="3.63809" stroke-miterlimit="10"/>
<path d="M261.659 205.292C261.659 205.292 280.943 209.406 278.855 192.178C277.502 181.014 271.05 191.387 276.73 190.398" stroke="#52D150" stroke-width="3.63809" stroke-miterlimit="10"/>
<path d="M34.669 243.373C34.669 243.373 36.8349 265.17 24.3175 265.17C11.8 265.17 8.18861 250.805 8.18861 250.805L1.46542 254.273" stroke="#AB9CFF" stroke-width="3.63809" stroke-miterlimit="10"/>
<path d="M54.5475 241.639L63.4366 278.794H73.924" stroke="#AB9CFF" stroke-width="3.63809" stroke-miterlimit="10"/>
<path d="M246.105 166.668H200.321L177.43 206.316L200.321 245.966H246.105L268.996 206.316L246.105 166.668Z" fill="#8FF28D"/>
<path d="M233.073 194.613C234.512 194.613 235.678 193.447 235.678 192.008C235.678 190.57 234.512 189.403 233.073 189.403C231.635 189.403 230.468 190.57 230.468 192.008C230.468 193.447 231.635 194.613 233.073 194.613Z" fill="white"/>
<path d="M242.122 199.847C243.561 199.847 244.727 198.681 244.727 197.242C244.727 195.804 243.561 194.637 242.122 194.637C240.684 194.637 239.518 195.804 239.518 197.242C239.518 198.681 240.684 199.847 242.122 199.847Z" fill="white"/>
<path d="M248.472 193.371C249.911 193.371 251.077 192.205 251.077 190.766C251.077 189.328 249.911 188.162 248.472 188.162C247.033 188.162 245.867 189.328 245.867 190.766C245.867 192.205 247.033 193.371 248.472 193.371Z" fill="white"/>
<path d="M233.74 201.048C233.74 201.048 240.427 203.948 245.753 203.24C251.079 202.532 250.793 207.992 246.619 209.58C243.67 210.701 234.007 209.454 230.89 206.476C228.167 203.871 228.761 199.44 233.738 201.048H233.74Z" fill="white"/>
<path d="M184.432 168.938L230.214 248.236H138.65L184.432 168.938Z" fill="#FF6666"/>
<path d="M197.757 209.597C199.196 209.597 200.362 208.431 200.362 206.992C200.362 205.554 199.196 204.387 197.757 204.387C196.319 204.387 195.152 205.554 195.152 206.992C195.152 208.431 196.319 209.597 197.757 209.597Z" fill="white"/>
<path d="M192.652 215.673C194.09 215.673 195.257 214.507 195.257 213.068C195.257 211.629 194.09 210.463 192.652 210.463C191.213 210.463 190.047 211.629 190.047 213.068C190.047 214.507 191.213 215.673 192.652 215.673Z" fill="white"/>
<path d="M182.421 211.448C183.86 211.448 185.026 210.282 185.026 208.843C185.026 207.404 183.86 206.238 182.421 206.238C180.983 206.238 179.817 207.404 179.817 208.843C179.817 210.282 180.983 211.448 182.421 211.448Z" fill="white"/>
<path d="M203.294 214.528C203.294 214.528 199.064 221.486 190.753 221.503C181.194 221.523 176.613 215.309 176.613 215.309" stroke="white" stroke-width="2.42539" stroke-miterlimit="10"/>
<path d="M113.744 245.966H166.562V148.894H113.744L113.744 245.966Z" fill="#5E9EFF"/>
<path d="M150.382 174.228C151.612 174.228 152.609 173.231 152.609 172.001C152.609 170.772 151.612 169.775 150.382 169.775C149.152 169.775 148.156 170.772 148.156 172.001C148.156 173.231 149.152 174.228 150.382 174.228Z" fill="white"/>
<path d="M137.503 163.597L144.437 167.124L136.632 171.351" stroke="white" stroke-width="2.42539" stroke-miterlimit="10"/>
<path d="M161.893 163.621L155.878 167.148L163.074 170.682" stroke="white" stroke-width="2.42539" stroke-miterlimit="10"/>
<path d="M151.949 176.36C150.009 176.692 147.091 176.762 144.476 175.513C140.152 173.449 138.243 177.412 139.795 179.6C142.429 183.316 146.521 184.451 150.69 184.203C155.189 183.934 161.398 180.495 160.103 177.371C158.699 173.985 155.369 175.773 151.949 176.36V176.36Z" fill="white"/>
<path d="M88.1319 245.963C109.815 245.963 127.392 228.386 127.392 206.704C127.392 185.021 109.815 167.444 88.1319 167.444C66.4493 167.444 48.8721 185.021 48.8721 206.704C48.8721 228.386 66.4493 245.963 88.1319 245.963Z" fill="#FFD66D"/>
<path d="M97.0986 199.454C98.5372 199.454 99.7035 198.288 99.7035 196.849C99.7035 195.411 98.5372 194.244 97.0986 194.244C95.66 194.244 94.4937 195.411 94.4937 196.849C94.4937 198.288 95.66 199.454 97.0986 199.454Z" fill="white"/>
<path d="M106.878 203.146C108.316 203.146 109.483 201.979 109.483 200.541C109.483 199.102 108.316 197.936 106.878 197.936C105.439 197.936 104.273 199.102 104.273 200.541C104.273 201.979 105.439 203.146 106.878 203.146Z" fill="white"/>
<path d="M112.088 195.722C113.526 195.722 114.692 194.555 114.692 193.117C114.692 191.678 113.526 190.512 112.088 190.512C110.649 190.512 109.483 191.678 109.483 193.117C109.483 194.555 110.649 195.722 112.088 195.722Z" fill="white"/>
<path d="M94.2367 207.363C94.2367 207.363 101.775 212.258 109.815 210.148C118.032 207.992 119.9 200.017 119.9 200.017" stroke="white" stroke-width="2.42539" stroke-miterlimit="10"/>
<path d="M43.5533 165.911L1.46788 196.49L17.5434 245.966H69.5656L85.6411 196.49L43.5533 165.911Z" fill="#D99CFF"/>
<path d="M51.9427 199.013C53.3813 199.013 54.5476 197.847 54.5476 196.408C54.5476 194.969 53.3813 193.803 51.9427 193.803C50.5041 193.803 49.3378 194.969 49.3378 196.408C49.3378 197.847 50.5041 199.013 51.9427 199.013Z" fill="white"/>
<path d="M61.6297 202.622C63.0684 202.622 64.2346 201.455 64.2346 200.017C64.2346 198.578 63.0684 197.412 61.6297 197.412C60.1911 197.412 59.0249 198.578 59.0249 200.017C59.0249 201.455 60.1911 202.622 61.6297 202.622Z" fill="white"/>
<path d="M67.3391 197.773C68.7777 197.773 69.944 196.607 69.944 195.169C69.944 193.73 68.7777 192.564 67.3391 192.564C65.9005 192.564 64.7342 193.73 64.7342 195.169C64.7342 196.607 65.9005 197.773 67.3391 197.773Z" fill="white"/>
<path d="M58.4621 204.591C60.6135 204.96 64.4359 205.154 67.3391 203.769C72.1365 201.479 74.2636 206.066 72.5415 208.494C69.6189 212.614 64.1351 214.062 59.5099 213.786C54.5185 213.487 46.9318 209.626 48.4744 205.913C50.2352 201.673 54.6713 203.941 58.4646 204.591H58.4621Z" fill="white"/>
<path d="M4.54567 212.782L14.3297 218.108" stroke="#FFC161" stroke-width="3.63809" stroke-miterlimit="10"/>
<path d="M20.6697 205.28C20.6697 205.28 10.9657 198.343 7.9946 162.181" stroke="#AB9CFF" stroke-width="3.63809" stroke-miterlimit="10"/>
<path d="M25.8552 141.056L15.4842 126.215" stroke="#8FF28D" stroke-width="3.63809" stroke-miterlimit="10"/>
<path d="M63.1722 105.516L76.7156 137.066" stroke="#FF6666" stroke-width="3.63809" stroke-miterlimit="10"/>
<path d="M127.979 126.035L126.805 93.1809" stroke="#FFD66D" stroke-width="3.63809" stroke-miterlimit="10"/>
<path d="M186.824 133.864L197.41 101.206" stroke="#D99CFF" stroke-width="3.63809" stroke-miterlimit="10"/>
<path d="M241.957 145.278L256.112 128.102" stroke="#5E9EFF" stroke-width="3.63809" stroke-miterlimit="10"/>
</g>
<defs>
<clipPath id="clip0_1806_11175">
<rect width="280" height="280" fill="white"/>
</clipPath>
</defs>
</svg>
