<svg width="280" height="280" viewBox="0 0 280 280" fill="none" xmlns="http://www.w3.org/2000/svg">
<g clip-path="url(#clip0_1806_11656)">
<rect width="280" height="280" fill="white"/>
<path d="M57.5006 266.542L155.096 228.098C161.891 225.421 165.23 217.742 162.553 210.947L126.441 119.269C123.764 112.474 116.085 109.135 109.289 111.812L11.6942 150.255C4.8985 152.932 1.55957 160.611 4.23645 167.407L40.3491 259.084C43.026 265.88 50.705 269.219 57.5006 266.542Z" fill="#E9E1FF"/>
<path d="M115.817 140.643C115.817 140.643 129.121 167.558 124.016 204.925" stroke="#AB9CFF" stroke-width="4.42105" stroke-miterlimit="10"/>
<path d="M38.4042 216.576L74.1823 259.976L143.024 232.854L139.59 176.712L74.5153 159.886L38.4042 216.576Z" fill="#D99CFF"/>
<path d="M96.3759 197.406C98.1242 197.406 99.5414 195.989 99.5414 194.241C99.5414 192.492 98.1242 191.075 96.3759 191.075C94.6277 191.075 93.2104 192.492 93.2104 194.241C93.2104 195.989 94.6277 197.406 96.3759 197.406Z" fill="white"/>
<path d="M108.938 199.295C110.686 199.295 112.103 197.878 112.103 196.13C112.103 194.382 110.686 192.964 108.938 192.964C107.189 192.964 105.772 194.382 105.772 196.13C105.772 197.878 107.189 199.295 108.938 199.295Z" fill="white"/>
<path d="M113.232 189.144C114.98 189.144 116.397 187.727 116.397 185.979C116.397 184.231 114.98 182.814 113.232 182.814C111.484 182.814 110.067 184.231 110.067 185.979C110.067 187.727 111.484 189.144 113.232 189.144Z" fill="white"/>
<path d="M95.6598 207.462C95.6598 207.462 105.867 211.353 114.88 206.793C124.09 202.134 124.276 192.183 124.276 192.183" stroke="white" stroke-width="2.94737" stroke-miterlimit="10"/>
<path d="M34.8143 175.528C34.8143 175.528 41.7465 208.662 71.96 230.437" stroke="#AB9CFF" stroke-width="4.42105" stroke-miterlimit="10"/>
<path d="M141.449 240.968L244.849 258.605C252.049 259.834 258.881 254.992 260.11 247.793L276.678 150.662C277.906 143.462 273.065 136.63 265.865 135.402L162.464 117.764C155.264 116.536 148.432 121.377 147.204 128.577L130.636 225.708C129.408 232.908 134.249 239.74 141.449 240.968Z" fill="#FF978F"/>
<path d="M208.901 157.413L139.906 240.57C140.474 240.75 141.064 240.894 141.668 241L245.068 258.643C245.528 258.723 245.984 258.776 246.441 258.805L208.901 157.419V157.413Z" fill="#FF6666"/>
<path d="M216.926 208.544C218.675 208.544 220.092 207.127 220.092 205.379C220.092 203.63 218.675 202.213 216.926 202.213C215.178 202.213 213.761 203.63 213.761 205.379C213.761 207.127 215.178 208.544 216.926 208.544Z" fill="white"/>
<path d="M209.567 214.781C211.315 214.781 212.732 213.363 212.732 211.615C212.732 209.867 211.315 208.45 209.567 208.45C207.818 208.45 206.401 209.867 206.401 211.615C206.401 213.363 207.818 214.781 209.567 214.781Z" fill="white"/>
<path d="M198.178 207.624C199.926 207.624 201.344 206.207 201.344 204.459C201.344 202.711 199.926 201.293 198.178 201.293C196.43 201.293 195.013 202.711 195.013 204.459C195.013 206.207 196.43 207.624 198.178 207.624Z" fill="white"/>
<path d="M222.016 215.538C222.016 215.538 215.526 223.007 205.567 221.33C194.114 219.402 189.893 211.02 189.893 211.02" stroke="white" stroke-width="2.94737" stroke-miterlimit="10"/>
<path d="M170.131 218.695C170.131 218.695 177.959 246.866 198.243 231.006C198.659 230.679 198.968 230.222 199.107 229.712C199.475 228.327 198.853 225.783 191.532 223.245" stroke="#FF4353" stroke-width="4.42105" stroke-miterlimit="10"/>
<path d="M238.61 234.416C221.798 243.332 213.39 237.705 210.699 233.95C209.375 232.102 210.1 229.485 212.172 228.557C213.319 228.044 214.916 227.531 217.142 227.107" stroke="#FF4353" stroke-width="4.42105" stroke-miterlimit="10"/>
<path d="M23.7233 137.902L128.045 148.848C135.309 149.61 141.815 144.34 142.577 137.076L152.86 39.08C153.622 31.816 148.351 25.3095 141.087 24.5473L36.7659 13.6011C29.5019 12.8389 22.9954 18.1097 22.2332 25.3737L11.9508 123.369C11.1886 130.633 16.4593 137.14 23.7233 137.902Z" fill="#DBEDFF"/>
<path d="M45.8649 140.223L109.699 146.921L118.746 60.7031L54.9116 54.0051L45.8649 140.223Z" fill="#5E9EFF"/>
<path d="M103.105 83.9469C104.853 83.9469 106.27 82.5297 106.27 80.7814C106.27 79.0332 104.853 77.616 103.105 77.616C101.357 77.616 99.9395 79.0332 99.9395 80.7814C99.9395 82.5297 101.357 83.9469 103.105 83.9469Z" fill="white"/>
<path d="M96.1638 90.6463C97.912 90.6463 99.3292 89.2291 99.3292 87.4808C99.3292 85.7326 97.912 84.3154 96.1638 84.3154C94.4155 84.3154 92.9983 85.7326 92.9983 87.4808C92.9983 89.2291 94.4155 90.6463 96.1638 90.6463Z" fill="white"/>
<path d="M84.3361 84.2387C86.0844 84.2387 87.5016 82.8215 87.5016 81.0732C87.5016 79.325 86.0844 77.9077 84.3361 77.9077C82.5879 77.9077 81.1707 79.325 81.1707 81.0732C81.1707 82.8215 82.5879 84.2387 84.3361 84.2387Z" fill="white"/>
<path d="M108.84 90.5932C108.84 90.5932 102.845 98.4656 92.7979 97.4341C81.2442 96.2463 76.493 88.1557 76.493 88.1557" stroke="white" stroke-width="2.94737" stroke-miterlimit="10"/>
<path d="M58.9709 102.677C58.9709 102.677 49.6484 131.544 83.0421 123.754C103.901 118.888 100.841 118.629 108.634 119.598" stroke="#5E7BFF" stroke-width="4.42105" stroke-miterlimit="10"/>
<path d="M110.971 108.133C110.971 108.133 134.541 139.198 84.0884 118.511C72.9356 113.936 66.0918 117.606 66.0918 117.606" stroke="#5E7BFF" stroke-width="4.42105" stroke-miterlimit="10"/>
<path d="M114.275 103.29L112.687 118.408L106.736 110.668L114.275 103.29Z" fill="#5E9EFF"/>
<path d="M154.677 170.028L258.069 152.336C265.268 151.104 270.105 144.27 268.873 137.07L252.255 39.9485C251.023 32.7492 244.188 27.9117 236.989 29.1436L133.598 46.8351C126.398 48.067 121.561 54.9018 122.793 62.101L139.412 159.223C140.643 166.422 147.478 171.26 154.677 170.028Z" fill="#FFF7C5"/>
<path d="M222.167 121.216C222.167 121.216 255.28 139.136 249.601 84.5393" stroke="#FFC161" stroke-width="4.42105" stroke-miterlimit="10"/>
<path d="M191.673 75.2846C165.701 79.7292 148.25 104.387 152.694 130.359C155.459 146.517 166.049 159.376 179.91 165.716L232.836 156.658C243.8 146.069 249.512 130.421 246.745 114.264C242.3 88.2913 217.642 70.8399 191.67 75.2846H191.673Z" fill="#FFD66D"/>
<path d="M201.373 112.516C203.121 112.516 204.538 111.099 204.538 109.35C204.538 107.602 203.121 106.185 201.373 106.185C199.625 106.185 198.208 107.602 198.208 109.35C198.208 111.099 199.625 112.516 201.373 112.516Z" fill="white"/>
<path d="M213.148 117.285C214.896 117.285 216.313 115.867 216.313 114.119C216.313 112.371 214.896 110.954 213.148 110.954C211.4 110.954 209.982 112.371 209.982 114.119C209.982 115.867 211.4 117.285 213.148 117.285Z" fill="white"/>
<path d="M219.691 108.416C221.439 108.416 222.856 106.999 222.856 105.25C222.856 103.502 221.439 102.085 219.691 102.085C217.943 102.085 216.525 103.502 216.525 105.25C216.525 106.999 217.943 108.416 219.691 108.416Z" fill="white"/>
<path d="M197.594 122.042C197.594 122.042 206.61 128.208 216.44 125.876C226.485 123.495 228.984 113.86 228.984 113.86" stroke="white" stroke-width="2.94737" stroke-miterlimit="10"/>
<path d="M174.195 129.428C174.195 129.428 187.016 157.944 208.965 134.948" stroke="#FFC161" stroke-width="4.42105" stroke-miterlimit="10"/>
</g>
<defs>
<clipPath id="clip0_1806_11656">
<rect width="280" height="280" fill="white"/>
</clipPath>
</defs>
</svg>
