<svg width="130" height="131" viewBox="0 0 130 131" fill="none" xmlns="http://www.w3.org/2000/svg">
<g clip-path="url(#clip0_1806_11238)">
<path d="M130.055 0.72261H0V130.777H130.055V0.72261Z" fill="#FFD66D"/>
<path d="M103.505 8.31735H22.4133V123.667H103.505V8.31735Z" fill="#FFC161"/>
<path d="M63.9545 72.224C63.9545 72.224 50.9313 71.8189 37.1636 63.0597" stroke="#FF4353" stroke-width="3.48684" stroke-miterlimit="10"/>
<path d="M96.6707 87.8623V121.957H86.7236" stroke="#FF4353" stroke-width="3.48684" stroke-miterlimit="10"/>
<path d="M70.3052 87.8623V121.957H60.3582" stroke="#FF4353" stroke-width="3.48684" stroke-miterlimit="10"/>
<path d="M83.2627 30.0082L43.8823 98.2172H122.643L83.2627 30.0082Z" fill="#FF6666"/>
<path d="M71.8009 64.981C73.0381 64.981 74.041 63.978 74.041 62.7409C74.041 61.5037 73.0381 60.5008 71.8009 60.5008C70.5637 60.5008 69.5608 61.5037 69.5608 62.7409C69.5608 63.978 70.5637 64.981 71.8009 64.981Z" fill="white"/>
<path d="M76.1925 70.2083C77.4297 70.2083 78.4326 69.2054 78.4326 67.9682C78.4326 66.731 77.4297 65.7281 76.1925 65.7281C74.9553 65.7281 73.9524 66.731 73.9524 67.9682C73.9524 69.2054 74.9553 70.2083 76.1925 70.2083Z" fill="white"/>
<path d="M84.9913 66.5724C86.2285 66.5724 87.2314 65.5695 87.2314 64.3323C87.2314 63.0951 86.2285 62.0922 84.9913 62.0922C83.7542 62.0922 82.7512 63.0951 82.7512 64.3323C82.7512 65.5695 83.7542 66.5724 84.9913 66.5724Z" fill="white"/>
<path d="M67.0391 69.2244C67.0391 69.2244 70.6777 75.2085 77.8277 75.2249C86.0492 75.2427 89.9916 69.8977 89.9916 69.8977" stroke="white" stroke-width="2.78947" stroke-miterlimit="10"/>
<path d="M114.798 50.1062C114.798 50.1062 112.952 63.005 102.719 75.7162" stroke="#FF4353" stroke-width="3.48684" stroke-miterlimit="10"/>
<path d="M53.9897 6.20318H2.34961V127.159H53.9897V6.20318Z" fill="#FFD66D"/>
<path d="M44.8268 71.6041C46.8349 71.6041 48.4627 69.9763 48.4627 67.9682C48.4627 65.9602 46.8349 64.3323 44.8268 64.3323C42.8188 64.3323 41.1909 65.9602 41.1909 67.9682C41.1909 69.9763 42.8188 71.6041 44.8268 71.6041Z" fill="#FFC161"/>
</g>
<defs>
<clipPath id="clip0_1806_11238">
<rect width="130" height="130" fill="white" transform="translate(0 0.75)"/>
</clipPath>
</defs>
</svg>
