<svg width="279" height="279" viewBox="0 0 279 279" fill="none" xmlns="http://www.w3.org/2000/svg">
<g clip-path="url(#clip0_1806_11885)">
<rect x="-1" width="280" height="280" fill="white"/>
<path d="M9.73401 167.968L193.313 167.968L193.313 28.334L9.73401 28.334L9.73401 167.968Z" fill="#F1F2F2"/>
<path d="M3.27051 168.418L199.144 168.418V151.967L3.27051 151.967V168.418Z" fill="#D1D3D4"/>
<path d="M53.9607 196.618L101.525 279H6.39633L53.9607 196.618Z" fill="#FF6666"/>
<path d="M167.196 147.229C167.196 147.229 134.995 137.03 131.208 92.7081" stroke="#52D150" stroke-width="3.875" stroke-miterlimit="10"/>
<path d="M176.46 86.8672H235.993L265.76 138.425L235.993 189.983H176.46L146.695 138.425L176.46 86.8672Z" fill="#8FF28D"/>
<path d="M190.322 123.517C192.064 123.517 193.476 122.105 193.476 120.363C193.476 118.621 192.064 117.208 190.322 117.208C188.58 117.208 187.168 118.621 187.168 120.363C187.168 122.105 188.58 123.517 190.322 123.517Z" fill="white"/>
<path d="M180.472 135.051C182.214 135.051 183.626 133.639 183.626 131.897C183.626 130.155 182.214 128.743 180.472 128.743C178.73 128.743 177.317 130.155 177.317 131.897C177.317 133.639 178.73 135.051 180.472 135.051Z" fill="white"/>
<path d="M169.348 119.967C171.09 119.967 172.502 118.555 172.502 116.813C172.502 115.071 171.09 113.659 169.348 113.659C167.606 113.659 166.194 115.071 166.194 116.813C166.194 118.555 167.606 119.967 169.348 119.967Z" fill="white"/>
<path d="M197.163 137.914C197.163 137.914 188.746 144.822 178.78 143.365C168.596 141.874 165.274 132.525 165.274 132.525" stroke="white" stroke-width="2.58333" stroke-miterlimit="10"/>
<path d="M171.092 128.707C177.038 128.707 181.859 123.886 181.859 117.939C181.859 111.993 177.038 107.172 171.092 107.172C165.145 107.172 160.324 111.993 160.324 117.939C160.324 123.886 165.145 128.707 171.092 128.707Z" stroke="#52D150" stroke-width="3.875" stroke-miterlimit="10"/>
<path d="M193.313 132.311C199.26 132.311 204.081 127.49 204.081 121.543C204.081 115.597 199.26 110.776 193.313 110.776C187.367 110.776 182.546 115.597 182.546 121.543C182.546 127.49 187.367 132.311 193.313 132.311Z" stroke="#52D150" stroke-width="3.875" stroke-miterlimit="10"/>
<path d="M204.081 123.52L226.318 119.092" stroke="#52D150" stroke-width="3.875" stroke-miterlimit="10"/>
<path d="M109.856 262.614H265.76V159.72H109.856V262.614Z" fill="#FFD66D"/>
<path d="M235.231 143.566C235.231 143.566 243.714 146.661 243.714 154.576C243.714 162.492 206.227 159.72 206.227 159.72" stroke="#52D150" stroke-width="3.875" stroke-miterlimit="10"/>
<path d="M124.762 279H242.497V196.617H124.762L124.762 279Z" fill="#5E9EFF"/>
<path d="M37.7348 53.0461V67.5128H33.6428V56.2081H30.9561V53.0461H37.7348V53.0461Z" fill="#A7A9AC"/>
<path d="M39.7601 65.3634C39.7601 63.9581 40.7934 63.0488 42.1161 63.0488C43.4387 63.0488 44.4721 63.9581 44.4721 65.3634C44.4721 66.7688 43.4594 67.6988 42.1161 67.6988C40.7727 67.6988 39.7601 66.7274 39.7601 65.3634Z" fill="#A7A9AC"/>
<path d="M42.7154 95.2681V98.5128H31.4521V95.9501L36.8668 90.8868C38.0241 89.8121 38.1894 89.1508 38.1894 88.5515C38.1894 87.6215 37.5694 87.0635 36.3294 87.0635C35.2754 87.0635 34.3248 87.5388 33.7461 88.4688L30.7081 86.7741C31.8034 84.9555 33.8494 83.7568 36.7014 83.7568C40.0288 83.7568 42.3228 85.4721 42.3228 88.1588C42.3228 89.5641 41.9301 90.8455 39.8634 92.7468L37.1354 95.2681H42.7154V95.2681Z" fill="#A7A9AC"/>
<path d="M43.9761 96.3634C43.9761 94.9581 45.0094 94.0488 46.3321 94.0488C47.6547 94.0488 48.6881 94.9581 48.6881 96.3634C48.6881 97.7688 47.6754 98.6988 46.3321 98.6988C44.9887 98.6988 43.9761 97.7274 43.9761 96.3634Z" fill="#A7A9AC"/>
<path d="M42.6741 124.987C42.6741 127.446 40.7314 129.802 36.3708 129.802C34.3661 129.802 32.2374 129.306 30.7494 128.376L32.2374 125.297C33.3948 126.082 34.8828 126.495 36.2468 126.495C37.6108 126.495 38.5408 125.958 38.5408 124.987C38.5408 124.119 37.9001 123.581 36.3294 123.581H34.6141V120.998L37.1974 118.208H31.4934V115.046H41.9508V117.609L38.9541 120.833C41.3928 121.349 42.6741 122.92 42.6741 124.987V124.987Z" fill="#A7A9AC"/>
<path d="M43.8521 127.363C43.8521 125.958 44.8854 125.049 46.2081 125.049C47.5307 125.049 48.5641 125.958 48.5641 127.363C48.5641 128.769 47.5514 129.699 46.2081 129.699C44.8647 129.699 43.8521 128.727 43.8521 127.363Z" fill="#A7A9AC"/>
</g>
<defs>
<clipPath id="clip0_1806_11885">
<rect width="279" height="279" fill="white"/>
</clipPath>
</defs>
</svg>
