<svg width="148" height="148" viewBox="0 0 148 148" fill="none" xmlns="http://www.w3.org/2000/svg">
<g clip-path="url(#clip0_1806_11268)">
<rect x="-1" width="148" height="148" fill="white"/>
<path d="M32.8933 101.763C32.8933 101.763 34.0025 110.335 28.4377 112.263C24.2984 113.7 19.687 108.922 19.687 108.922L15.5508 113.698" stroke="#FFC161" stroke-width="2.33684" stroke-miterlimit="10"/>
<path d="M113.966 101.763C113.966 101.763 113.165 116.082 121.603 117.674C126.644 118.624 130.513 110.595 130.513 110.595L135.445 115.446" stroke="#FF4353" stroke-width="2.33684" stroke-miterlimit="10"/>
<path d="M76.7403 46.634C76.7403 46.634 75.0609 60.6925 61.853 75.5236" stroke="#FFC161" stroke-width="2.33684" stroke-miterlimit="10"/>
<path d="M49.7654 96.3729V124.269H57.9038" stroke="#FFC161" stroke-width="2.33684" stroke-miterlimit="10"/>
<path d="M40.1564 104.393C55.4156 104.393 67.7856 92.0229 67.7856 76.7637C67.7856 61.5045 55.4156 49.1344 40.1564 49.1344C24.8971 49.1344 12.5271 61.5045 12.5271 76.7637C12.5271 92.0229 24.8971 104.393 40.1564 104.393Z" fill="#FFD66D"/>
<path d="M46.4674 71.6616C47.4801 71.6616 48.3011 70.8406 48.3011 69.8279C48.3011 68.8152 47.4801 67.9943 46.4674 67.9943C45.4547 67.9943 44.6338 68.8152 44.6338 69.8279C44.6338 70.8406 45.4547 71.6616 46.4674 71.6616Z" fill="white"/>
<path d="M53.35 74.2602C54.3627 74.2602 55.1836 73.4392 55.1836 72.4265C55.1836 71.4138 54.3627 70.5929 53.35 70.5929C52.3373 70.5929 51.5164 71.4138 51.5164 72.4265C51.5164 73.4392 52.3373 74.2602 53.35 74.2602Z" fill="white"/>
<path d="M57.0158 69.035C58.0285 69.035 58.8494 68.214 58.8494 67.2013C58.8494 66.1887 58.0285 65.3677 57.0158 65.3677C56.0031 65.3677 55.1821 66.1887 55.1821 67.2013C55.1821 68.214 56.0031 69.035 57.0158 69.035Z" fill="white"/>
<path d="M44.4531 77.2264C44.4531 77.2264 49.7578 80.6709 55.416 79.1862C61.1989 77.6689 62.5138 72.0573 62.5138 72.0573" stroke="white" stroke-width="1.55789" stroke-miterlimit="10"/>
<path d="M26.6554 81.3953C26.6554 81.3953 26.6554 94.7621 9.75537 105.421" stroke="#FFC161" stroke-width="2.33684" stroke-miterlimit="10"/>
<path d="M77.3745 46.634C77.3745 46.634 78.3077 69.8077 94.4537 78.3341" stroke="#FF4353" stroke-width="2.33684" stroke-miterlimit="10"/>
<path d="M101.15 96.6471V124.541H93.0112" stroke="#FF4353" stroke-width="2.33684" stroke-miterlimit="10"/>
<path d="M109.595 48.8603L77.3745 104.667H141.814L109.595 48.8603Z" fill="#FF6666"/>
<path d="M100.216 77.4757C101.229 77.4757 102.05 76.6547 102.05 75.642C102.05 74.6293 101.229 73.8084 100.216 73.8084C99.2035 73.8084 98.3826 74.6293 98.3826 75.642C98.3826 76.6547 99.2035 77.4757 100.216 77.4757Z" fill="white"/>
<path d="M103.81 81.7521C104.823 81.7521 105.644 80.9311 105.644 79.9184C105.644 78.9057 104.823 78.0848 103.81 78.0848C102.798 78.0848 101.977 78.9057 101.977 79.9184C101.977 80.9311 102.798 81.7521 103.81 81.7521Z" fill="white"/>
<path d="M111.009 78.7781C112.022 78.7781 112.843 77.9571 112.843 76.9444C112.843 75.9317 112.022 75.1108 111.009 75.1108C109.997 75.1108 109.176 75.9317 109.176 76.9444C109.176 77.9571 109.997 78.7781 111.009 78.7781Z" fill="white"/>
<path d="M96.3201 80.9467C96.3201 80.9467 99.2972 85.8431 105.147 85.8556C111.873 85.8696 115.099 81.4966 115.099 81.4966" stroke="white" stroke-width="1.55789" stroke-miterlimit="10"/>
<path d="M138.316 108.883C138.316 108.883 128.474 101.291 121.17 86.5644" stroke="#FF4353" stroke-width="2.33684" stroke-miterlimit="10"/>
<path d="M67.376 39.2278L56.3306 30.8743" stroke="#5E7BFF" stroke-width="2.33684" stroke-miterlimit="10"/>
<path d="M86.1033 39.2278L97.1503 30.8743" stroke="#5E7BFF" stroke-width="2.33684" stroke-miterlimit="10"/>
<path d="M76.7405 35.0511V18.1058" stroke="#5E7BFF" stroke-width="2.33684" stroke-miterlimit="10"/>
</g>
<defs>
<clipPath id="clip0_1806_11268">
<rect width="148" height="148" fill="white"/>
</clipPath>
</defs>
</svg>
